<svg xmlns="http://www.w3.org/2000/svg" xmlns:xlink="http://www.w3.org/1999/xlink" width="30" height="30" viewBox="0 0 30 30">
  <defs>
    <filter id="Rectangle_29883" x="-12" y="-12" width="48" height="48" filterUnits="userSpaceOnUse">
      <feOffset dx="-3" dy="-3" input="SourceAlpha"/>
      <feGaussianBlur stdDeviation="3" result="blur"/>
      <feFlood flood-color="#fff" flood-opacity="0.161"/>
      <feComposite operator="in" in2="blur"/>
      <feComposite in="SourceGraphic"/>
    </filter>
    <clipPath id="clip-path">
      <g transform="matrix(1, 0, 0, 1, 0, 0)" filter="url(#Rectangle_29883)">
        <rect id="Rectangle_29883-2" data-name="Rectangle 29883" width="30" height="30" transform="translate(-3 -3)" fill="#fff"/>
      </g>
    </clipPath>
    <filter id="facebook-f" x="-2.177" y="-6.023" width="28.647" height="37.014" filterUnits="userSpaceOnUse">
      <feOffset dx="-3" dy="-3" input="SourceAlpha"/>
      <feGaussianBlur stdDeviation="3" result="blur-2"/>
      <feFlood flood-color="#fff" flood-opacity="0.161"/>
      <feComposite operator="in" in2="blur-2"/>
      <feComposite in="SourceGraphic"/>
    </filter>
  </defs>
  <g id="facebook" transform="translate(-1137 -4564)">
    <rect id="Rectangle_29884" data-name="Rectangle 29884" width="30" height="30" transform="translate(1137 4564)" fill="none"/>
    <g id="Group_88359" data-name="Group 88359" transform="translate(1140 4567)" clip-path="url(#clip-path)">
      <g transform="matrix(1, 0, 0, 1, -3, -3)" filter="url(#facebook-f)">
        <path id="facebook-f-2" data-name="facebook-f" d="M31.905,10.132l.5-3.26H29.277V4.757A1.63,1.63,0,0,1,31.115,3h1.422V.22A17.341,17.341,0,0,0,30.013,0c-2.576,0-4.26,1.561-4.26,4.388V6.872H22.89v3.26h2.863v7.881h3.524V10.132Z" transform="translate(-12.57 6.48)" fill="#fff" stroke="rgba(0,0,0,0)" stroke-miterlimit="10" stroke-width="1"/>
      </g>
    </g>
  </g>
</svg>
