<svg xmlns="http://www.w3.org/2000/svg" width="24" height="24" viewBox="0 0 24 24">
  <g id="Group_89591" data-name="Group 89591" transform="translate(-1469 -745)">
    <rect id="Rectangle_30196" data-name="Rectangle 30196" width="24" height="24" transform="translate(1469 745)" fill="#fff" opacity="0"/>
    <g id="Group_89555" data-name="Group 89555" transform="translate(1420.859 709.173)">
      <circle id="Ellipse_55" data-name="Ellipse 55" cx="8.141" cy="8.141" r="8.141" transform="translate(52 39.687)" fill="#77b967"/>
      <path id="Path_1315" data-name="Path 1315" d="M259.287,203.868a.4.4,0,0,1,.561-.019l.569.526a.392.392,0,0,1,.022.555l-5.523,5.921a.352.352,0,0,1-.531-.009l-2.9-3.269a.407.407,0,0,1,.027-.564l.569-.526a.388.388,0,0,1,.553.028l1.838,2.061a.237.237,0,0,0,.355.005Z" transform="translate(-195.824 -159.529)" fill="#fff" fill-rule="evenodd"/>
    </g>
  </g>
</svg>
