<svg xmlns="http://www.w3.org/2000/svg" xmlns:xlink="http://www.w3.org/1999/xlink" width="24" height="24" viewBox="0 0 24 24">
  <defs>
    <clipPath id="clip-path">
      <rect id="Rectangle_30038" data-name="Rectangle 30038" width="20" height="6.531" fill="#fff"/>
    </clipPath>
  </defs>
  <g id="Opticals" transform="translate(13214 11014)">
    <rect id="Rectangle_30030" data-name="Rectangle 30030" width="24" height="24" transform="translate(-13214 -11014)" fill="none"/>
    <g id="Group_89085" data-name="Group 89085" transform="translate(-13211.76 -10998.074) rotate(-40)">
      <g id="Group_89085-2" data-name="Group 89085" clip-path="url(#clip-path)">
        <path id="Path_155476" data-name="Path 155476" d="M20,1.941c-.089.156-.19.306-.264.469a2.257,2.257,0,0,0-.161.474c-.12.578-.226,1.16-.34,1.739a2.006,2.006,0,0,1-1.487,1.595,7.043,7.043,0,0,1-1.431.275,8.058,8.058,0,0,1-2.842-.222A3.15,3.15,0,0,1,11.369,4.5a8.261,8.261,0,0,1-.654-1.829.45.45,0,0,0-.4-.387,2.085,2.085,0,0,0-.368-.028c-.455.014-.572.115-.68.557a8.054,8.054,0,0,1-.735,1.9,3.059,3.059,0,0,1-2,1.552A8.194,8.194,0,0,1,3.3,6.447a4.259,4.259,0,0,1-1.506-.434,1.908,1.908,0,0,1-1-1.325C.666,4.1.557,3.5.447,2.911a1.29,1.29,0,0,0-.269-.634A2.023,2.023,0,0,1,.163.647.938.938,0,0,1,.774.3,17.533,17.533,0,0,1,5.376.05C6.1.1,6.823.2,7.541.3a3.239,3.239,0,0,1,.731.257c.252.1.5.225.742.343A2.18,2.18,0,0,0,11,.9q.429-.208.865-.4A4.78,4.78,0,0,1,13.632.12c1.11-.05,2.222-.105,3.332-.078A20.612,20.612,0,0,1,19.285.31.834.834,0,0,1,20,.965ZM4.179.705c-.544.05-1.072.071-1.59.154A1.431,1.431,0,0,0,1.326,2.016a4.092,4.092,0,0,0,.03,1.891A2.247,2.247,0,0,0,3.227,5.758,6.2,6.2,0,0,0,5.666,5.8a2.994,2.994,0,0,0,1.641-.754,4.186,4.186,0,0,0,1.18-2.982.689.689,0,0,0-.464-.716A6.242,6.242,0,0,0,6.781.974C5.914.85,5.038.79,4.179.705M16.016.711c-.872.067-1.586.108-2.3.181a5.654,5.654,0,0,0-1.64.4.847.847,0,0,0-.558.883,4.787,4.787,0,0,0,.5,1.907A2.75,2.75,0,0,0,13.8,5.654a5.652,5.652,0,0,0,3.32.008A1.949,1.949,0,0,0,18.41,4.59a3.953,3.953,0,0,0,.3-2.492A1.378,1.378,0,0,0,17.561.9C17,.8,16.43.759,16.016.711M.893,1.346l-.442-.17v.347l.442-.177m18.227,0,.444.177v-.35l-.444.174" transform="translate(0 0)" fill="#fff"/>
      </g>
    </g>
  </g>
</svg>
